<svg xmlns="http://www.w3.org/2000/svg" xmlns:xlink="http://www.w3.org/1999/xlink" width="500" zoomAndPan="magnify" viewBox="0 0 375 374.999991" height="500" preserveAspectRatio="xMidYMid meet" version="1.0"><defs><g/><clipPath id="28a6747165"><path d="M 146.410156 116.59375 L 228.910156 116.59375 L 228.910156 176.59375 L 146.410156 176.59375 Z M 146.410156 116.59375 " clip-rule="nonzero"/></clipPath></defs><rect x="-37.5" width="450" fill="#ffffff" y="-37.499999" height="449.999989" fill-opacity="1"/><rect x="-37.5" width="450" fill="#ffffff" y="-37.499999" height="449.999989" fill-opacity="1"/><g clip-path="url(#28a6747165)"><path fill="#ff11a8" d="M 212.011719 121.054688 L 210.515625 121.074219 L 212.046875 121.179688 Z M 203.363281 131.34375 L 204.136719 130.042969 L 211.027344 116.628906 L 211.007812 116.609375 L 190.402344 116.609375 L 209.15625 117.691406 Z M 227.949219 133.007812 L 226.527344 131.625 L 211.769531 117.269531 L 211.632812 117.136719 L 211.773438 117.292969 L 212.238281 117.800781 L 221.214844 127.703125 L 226.613281 133.660156 L 222.601562 133.585938 L 215.664062 133.355469 L 214.59375 129.859375 L 213.722656 127.015625 L 212.671875 123.574219 L 212.679688 123.574219 L 212.609375 123.308594 L 212.589844 123.308594 L 212.300781 122.375 L 212.363281 122.378906 L 212.308594 122.183594 L 209.972656 122.207031 L 212.292969 122.375 L 212.484375 123.308594 L 209.433594 123.34375 L 212.535156 123.5625 L 212.714844 124.4375 L 208.894531 124.480469 L 212.777344 124.753906 L 212.941406 125.5625 L 208.355469 125.613281 L 213.019531 125.945312 L 213.171875 126.691406 L 207.8125 126.75 L 213.261719 127.136719 L 213.269531 127.1875 L 213.398438 127.816406 L 207.273438 127.882812 L 213.503906 128.328125 L 213.628906 128.941406 L 206.734375 129.019531 L 213.746094 129.515625 L 213.859375 130.070312 L 206.195312 130.152344 L 213.988281 130.707031 L 214.085938 131.195312 L 205.65625 131.289062 L 214.230469 131.898438 L 214.316406 132.320312 L 205.117188 132.421875 L 214.472656 133.089844 L 214.535156 133.398438 L 205.941406 133.890625 L 204.570312 133.96875 L 205.878906 134.03125 L 209.09375 134.175781 L 214.328125 134.417969 L 213.910156 135.082031 L 198.699219 159.179688 L 187.511719 176.519531 L 190.519531 173.332031 L 228.582031 133.625 Z M 171.503906 136.25 L 160.441406 134.960938 L 161.691406 136.890625 L 170.746094 136.992188 Z M 173.527344 126.675781 L 170.058594 126.703125 L 171.1875 128.53125 L 173.378906 128.628906 Z M 167.457031 140.203125 L 168.804688 138.886719 L 163.203125 139.230469 L 163.808594 140.160156 Z M 170.625 137.105469 L 162.164062 137.625 L 162.75 138.523438 L 169.097656 138.597656 Z M 173.207031 130.902344 L 172.648438 130.90625 L 173.144531 131.707031 Z M 202.15625 134.160156 L 187.988281 116.609375 L 163.847656 116.609375 L 163.980469 116.828125 L 185.328125 118.136719 L 164.902344 118.328125 L 165.421875 119.167969 L 183.976562 120.261719 L 166.191406 120.421875 L 166.882812 121.542969 L 182.066406 122.390625 L 167.480469 122.511719 L 168.328125 123.894531 L 180.277344 124.515625 L 168.769531 124.605469 L 169.761719 126.222656 L 173.546875 126.40625 L 173.660156 124.917969 L 173.765625 126.414062 L 178.492188 126.640625 L 173.78125 126.675781 L 173.917969 128.652344 L 176.582031 128.769531 L 173.929688 128.785156 L 174.074219 130.867188 L 174.792969 130.894531 L 174.074219 130.898438 L 174.140625 131.8125 L 187.113281 117.691406 L 175.425781 133.089844 L 183.953125 129.636719 L 176.230469 133.773438 L 198.890625 134.160156 L 175.828125 136.070312 L 181.417969 140.769531 L 175.019531 136.664062 L 186.152344 172.652344 L 172.328125 136.789062 L 172.046875 137.003906 L 172.226562 137.007812 L 172.027344 137.019531 L 169.9375 138.605469 L 172.851562 138.636719 L 169.632812 138.835938 L 167.824219 140.207031 L 173.480469 140.269531 L 167.238281 140.652344 L 166.15625 141.472656 L 166.980469 140.667969 L 164.246094 140.835938 L 164.867188 141.796875 L 174.105469 141.902344 L 165.285156 142.441406 L 165.925781 143.433594 L 174.734375 143.53125 L 166.324219 144.046875 L 166.988281 145.070312 L 175.359375 145.164062 L 167.363281 145.652344 L 168.046875 146.707031 L 175.984375 146.792969 L 168.402344 147.257812 L 169.105469 148.34375 L 176.609375 148.425781 L 169.445312 148.863281 L 170.164062 149.976562 L 177.238281 150.058594 L 170.484375 150.46875 L 171.222656 151.613281 L 177.863281 151.6875 L 171.523438 152.074219 L 172.28125 153.25 L 178.488281 153.320312 L 172.5625 153.683594 L 173.339844 154.886719 L 179.117188 154.949219 L 173.601562 155.289062 L 174.402344 156.523438 L 179.742188 156.582031 L 174.640625 156.894531 L 175.457031 158.160156 L 180.367188 158.214844 L 175.679688 158.5 L 176.519531 159.796875 L 180.996094 159.847656 L 176.71875 160.109375 L 177.578125 161.433594 L 181.621094 161.476562 L 177.761719 161.714844 L 178.636719 163.066406 L 182.246094 163.109375 L 178.800781 163.320312 L 179.695312 164.703125 L 182.875 164.738281 L 179.839844 164.925781 L 180.757812 166.339844 L 183.5 166.371094 L 180.878906 166.53125 L 181.738281 167.855469 L 158.769531 134.765625 L 149.691406 133.707031 L 149.792969 133.707031 L 149.042969 133.621094 L 163.402344 118.152344 L 160.175781 133.707031 L 170.46875 133.707031 L 164.230469 129.625 L 171.109375 132.984375 L 163.785156 116.628906 L 146.410156 133.625 L 187.507812 176.523438 L 202.109375 134.160156 Z M 181.808594 167.976562 L 184.125 168.003906 L 181.917969 168.136719 Z M 182.90625 169.613281 L 184.75 169.632812 L 182.996094 169.742188 Z M 184.003906 171.25 L 185.378906 171.265625 L 184.070312 171.347656 Z M 185.144531 172.949219 L 185.101562 172.886719 L 186.003906 172.898438 Z M 186.21875 174.554688 L 186.199219 174.523438 L 186.628906 174.527344 Z M 173.367188 128.789062 L 171.351562 128.800781 L 172.585938 130.808594 L 173.210938 130.832031 Z M 173.367188 128.789062 " fill-opacity="1" fill-rule="nonzero"/></g><g fill="#ff11a8" fill-opacity="1"><g transform="translate(64.414035, 220.747075)"><g><path d="M 7.796875 -1.59375 L 7.796875 -40.125 L 7.46875 -40.125 L -0.484375 -38.375 L -0.484375 -38.046875 L 4.828125 -38.109375 L 4.828125 -1.59375 L 0.046875 -0.3125 L 0.046875 0 L 12.5625 0 L 12.5625 -0.3125 Z M 7.796875 -1.59375 "/></g></g></g><g fill="#ff11a8" fill-opacity="1"><g transform="translate(77.026179, 220.747075)"><g><path d="M 19.453125 -2.171875 L 19.453125 -5.671875 L 19.828125 -20.71875 C 19.921875 -24.109375 18.4375 -28.40625 12.765625 -28.40625 C 10.4375 -28.40625 4.5625 -24.75 1.328125 -15.640625 L 1.484375 -15.53125 L 5.40625 -17.703125 C 5.140625 -22.46875 7.359375 -26.078125 11.71875 -26.078125 C 16.265625 -26.078125 16.59375 -22.09375 16.59375 -18.078125 L 13.09375 -15.6875 C 7.625 -11.984375 2.28125 -7.84375 2.28125 -3.65625 C 2.28125 -1.265625 3.921875 0.578125 7.46875 0.578125 C 11.078125 0.578125 13.40625 -1.21875 16.484375 -5.5625 C 17.484375 0.15625 18.390625 0.375 19.140625 0.375 C 20.78125 0.375 23.53125 -3.5 25.8125 -5.359375 L 25.65625 -5.625 Z M 9.109375 -1.375 C 7.203125 -1.375 5.890625 -2.75 5.890625 -5.03125 C 5.890625 -8.6875 9.171875 -12.25 16.59375 -16.796875 L 16.484375 -6.78125 C 13.78125 -3.015625 11.1875 -1.375 9.109375 -1.375 Z M 9.109375 -1.375 "/></g></g></g><g fill="#ff11a8" fill-opacity="1"><g transform="translate(101.932527, 220.747075)"><g><path d="M 13.5625 -27.34375 C 18.609375 -25.765625 19.34375 -25.390625 16.171875 -16.640625 L 11.71875 -4.296875 L 11.390625 -4.296875 L 3.703125 -25.96875 L 8.796875 -27.34375 L 8.796875 -27.671875 L 0.109375 -27.671875 L 0.109375 -27.34375 L 10.171875 0.90625 L 3.34375 12.9375 L 3.34375 13.25 L 7.109375 13.25 L 21.140625 -27.34375 L 21.140625 -27.671875 L 13.5625 -27.671875 Z M 13.5625 -27.34375 "/></g></g></g><g fill="#ff11a8" fill-opacity="1"><g transform="translate(123.182407, 220.747075)"><g><path d="M 13.03125 -28.203125 C 12.34375 -28.203125 9.703125 -26.875 7.046875 -24.796875 L 7.046875 -40.125 L 6.734375 -40.125 L -1.21875 -38.375 L -1.21875 -38.046875 L 4.03125 -38.109375 L 3.921875 0.53125 L 4.234375 0.53125 L 5.78125 -3.96875 L 5.9375 -3.96875 C 7.046875 -1.375 9.59375 0.484375 13.671875 0.484375 C 15.734375 0.484375 23.90625 -3.765625 23.90625 -14.421875 C 23.90625 -24.015625 18.8125 -28.203125 13.03125 -28.203125 Z M 14.515625 -1.53125 C 9.859375 -1.53125 7 -5.25 7 -10.8125 L 7 -23.796875 C 8.15625 -24.75 9.8125 -25.859375 12.140625 -25.859375 C 17.546875 -25.859375 21.3125 -20.09375 21.3125 -12.875 C 21.3125 -3.015625 17.21875 -1.53125 14.515625 -1.53125 Z M 14.515625 -1.53125 "/></g></g></g><g fill="#ff11a8" fill-opacity="1"><g transform="translate(148.141741, 220.747075)"><g><path d="M 19.875 -3.8125 C 18.28125 -2.8125 16.90625 -1.796875 14.578125 -1.796875 C 8.0625 -1.796875 3.703125 -6.84375 3.703125 -15.578125 L 3.703125 -16.53125 L 16 -16.53125 C 16.6875 -16.53125 19.71875 -18.609375 19.71875 -19.5 C 19.71875 -24.75 17.859375 -28.296875 12.140625 -28.296875 C 9.90625 -28.296875 1.171875 -24.484375 1.171875 -12.875 C 1.171875 -3.875 6.40625 0.53125 12.765625 0.53125 C 14.3125 0.53125 17.015625 -1.109375 20.09375 -3.4375 Z M 11.234375 -26.015625 C 14.46875 -26.015625 17.328125 -23.578125 16.859375 -17.484375 L 3.765625 -17.484375 C 4.40625 -24.640625 8.375 -26.015625 11.234375 -26.015625 Z M 11.234375 -26.015625 "/></g></g></g><g fill="#ff11a8" fill-opacity="1"><g transform="translate(169.550603, 220.747075)"><g><path d="M 22.15625 -25.859375 C 21.515625 -25.4375 20.984375 -25.015625 20.25 -25.015625 C 18.390625 -25.015625 15.46875 -28.25 13.890625 -28.25 C 13.359375 -28.25 10.65625 -25.28125 8.90625 -22.578125 C 7.890625 -27.984375 7.046875 -28.203125 6.3125 -28.203125 C 4.65625 -28.203125 1.90625 -24.328125 -0.375 -22.46875 L -0.21875 -22.203125 L 5.984375 -25.65625 L 5.984375 -1.59375 L 1.21875 -0.3125 L 1.21875 0 L 13.734375 0 L 13.734375 -0.3125 L 8.953125 -1.59375 L 8.953125 -20.9375 C 10.125 -23.109375 11.765625 -25.4375 12.984375 -25.4375 C 14.84375 -25.4375 16.953125 -22.46875 18.765625 -22.46875 C 20.03125 -22.46875 21.3125 -24.59375 22.3125 -25.65625 Z M 22.15625 -25.859375 "/></g></g></g><g fill="#ff11a8" fill-opacity="1"><g transform="translate(190.853481, 220.747075)"><g><path d="M 23.15625 -19.234375 C 23.15625 -26.34375 19.234375 -28.09375 15.265625 -28.09375 C 14.359375 -28.09375 11.65625 -26.453125 8.796875 -23.109375 C 7.84375 -27.984375 7 -28.203125 6.3125 -28.203125 C 4.65625 -28.203125 1.90625 -24.328125 -0.375 -22.46875 L -0.21875 -22.203125 L 5.984375 -25.65625 L 5.984375 -1.59375 L 1.21875 -0.3125 L 1.21875 0 L 13.734375 0 L 13.734375 -0.3125 L 8.953125 -1.59375 L 8.953125 -21.890625 C 10.4375 -23.796875 12.453125 -25.703125 14.46875 -25.703125 C 17.4375 -25.703125 20.25 -23.75 20.25 -19.234375 L 20.25 -1.59375 L 15.46875 -0.3125 L 15.46875 0 L 27.984375 0 L 27.984375 -0.3125 L 23.21875 -1.59375 Z M 23.15625 -19.234375 "/></g></g></g><g fill="#ff11a8" fill-opacity="1"><g transform="translate(218.515417, 220.747075)"><g><path d="M 22.046875 -2.125 L 22.046875 -27.671875 L 14.3125 -27.671875 L 14.3125 -27.34375 L 19.078125 -25.96875 L 19.078125 -6.203125 C 17.546875 -4.140625 15.375 -1.859375 13.140625 -1.859375 C 10.171875 -1.859375 7.421875 -3.8125 7.421875 -8.328125 L 7.421875 -27.671875 L -0.3125 -27.671875 L -0.3125 -27.34375 L 4.453125 -25.96875 L 4.453125 -8.328125 C 4.453125 -1.21875 8.375 0.53125 12.34375 0.53125 C 13.296875 0.53125 16.21875 -1.265625 19.1875 -4.875 C 20.140625 0.21875 21.046875 0.421875 21.734375 0.421875 C 23.375 0.421875 26.125 -3.4375 28.40625 -5.296875 L 28.25 -5.5625 Z M 22.046875 -2.125 "/></g></g></g><g fill="#ff11a8" fill-opacity="1"><g transform="translate(245.859402, 220.747075)"><g><path d="M 22.15625 -25.859375 C 21.515625 -25.4375 20.984375 -25.015625 20.25 -25.015625 C 18.390625 -25.015625 15.46875 -28.25 13.890625 -28.25 C 13.359375 -28.25 10.65625 -25.28125 8.90625 -22.578125 C 7.890625 -27.984375 7.046875 -28.203125 6.3125 -28.203125 C 4.65625 -28.203125 1.90625 -24.328125 -0.375 -22.46875 L -0.21875 -22.203125 L 5.984375 -25.65625 L 5.984375 -1.59375 L 1.21875 -0.3125 L 1.21875 0 L 13.734375 0 L 13.734375 -0.3125 L 8.953125 -1.59375 L 8.953125 -20.9375 C 10.125 -23.109375 11.765625 -25.4375 12.984375 -25.4375 C 14.84375 -25.4375 16.953125 -22.46875 18.765625 -22.46875 C 20.03125 -22.46875 21.3125 -24.59375 22.3125 -25.65625 Z M 22.15625 -25.859375 "/></g></g></g><g fill="#ff11a8" fill-opacity="1"><g transform="translate(267.162269, 220.747075)"><g><path d="M 11.234375 -16 C 7.6875 -17.75 4.5 -19.5625 4.5 -22.796875 C 4.5 -25.015625 5.9375 -26.921875 9.109375 -26.921875 C 15 -26.921875 17.8125 -21.671875 18.390625 -16.328125 L 18.8125 -16.328125 L 18.8125 -27.984375 L 18.5 -27.984375 L 17.4375 -26.28125 C 15.6875 -27.875 13.03125 -28.40625 11.125 -28.40625 C 6.359375 -28.40625 2.921875 -25.4375 2.921875 -21.046875 C 2.921875 -16.953125 5.984375 -15 9.546875 -13.25 L 11.03125 -12.515625 C 15.578125 -10.234375 18.546875 -8.265625 18.546875 -5.25 C 18.546875 -2.484375 16.484375 -0.90625 13.671875 -0.90625 C 10.59375 -0.90625 3.8125 -2.21875 1.96875 -12.453125 L 1.53125 -12.453125 L 3.015625 -1.109375 C 5.515625 -0.6875 8.109375 0.578125 11.546875 0.578125 C 17.171875 0.578125 19.921875 -2.75 19.921875 -6.78125 C 19.921875 -11.28125 16.375 -13.46875 12.609375 -15.3125 Z M 11.234375 -16 "/></g></g></g><g fill="#ff11a8" fill-opacity="1"><g transform="translate(289.154035, 220.747075)"><g><path d="M 19.875 -3.8125 C 18.28125 -2.8125 16.90625 -1.796875 14.578125 -1.796875 C 8.0625 -1.796875 3.703125 -6.84375 3.703125 -15.578125 L 3.703125 -16.53125 L 16 -16.53125 C 16.6875 -16.53125 19.71875 -18.609375 19.71875 -19.5 C 19.71875 -24.75 17.859375 -28.296875 12.140625 -28.296875 C 9.90625 -28.296875 1.171875 -24.484375 1.171875 -12.875 C 1.171875 -3.875 6.40625 0.53125 12.765625 0.53125 C 14.3125 0.53125 17.015625 -1.109375 20.09375 -3.4375 Z M 11.234375 -26.015625 C 14.46875 -26.015625 17.328125 -23.578125 16.859375 -17.484375 L 3.765625 -17.484375 C 4.40625 -24.640625 8.375 -26.015625 11.234375 -26.015625 Z M 11.234375 -26.015625 "/></g></g></g></svg>